<svg width="31" height="31" viewBox="0 0 31 31" fill="none" xmlns="http://www.w3.org/2000/svg">
<path d="M13.5695 8.48225C13.5695 7.53972 14.3336 6.77566 15.2761 6.77566C16.2186 6.77566 16.9827 7.53972 16.9827 8.48225V22.3146C16.9827 23.2571 16.2186 24.0212 15.2761 24.0212C14.3336 24.0212 13.5695 23.2571 13.5695 22.3146V8.48225Z" fill="white" fill-opacity="0.5"/>
<path d="M8.35996 17.105C7.41743 17.105 6.65337 16.3409 6.65337 15.3984C6.65337 14.4559 7.41743 13.6918 8.35996 13.6918H22.1923C23.1348 13.6918 23.8989 14.4559 23.8989 15.3984C23.8989 16.3409 23.1348 17.105 22.1923 17.105H8.35996Z" fill="white" fill-opacity="0.5"/>
<path d="M10.5156 3.90141C10.5156 4.89354 9.71137 5.69782 8.71924 5.69782C7.72711 5.69782 6.92283 4.89354 6.92283 3.90141C6.92283 2.90928 7.72711 2.105 8.71924 2.105C9.71137 2.105 10.5156 2.90928 10.5156 3.90141Z" fill="white" fill-opacity="0.5"/>
<path d="M5.66534 8.75171C5.66534 9.74384 4.86107 10.5481 3.86894 10.5481C2.87681 10.5481 2.07253 9.74384 2.07253 8.75171C2.07253 7.75958 2.87681 6.9553 3.86894 6.9553C4.86107 6.9553 5.66534 7.75958 5.66534 8.75171Z" fill="white" fill-opacity="0.5"/>
<path d="M5.66534 22.0451C5.66534 23.0373 4.86107 23.8415 3.86894 23.8415C2.87681 23.8415 2.07253 23.0373 2.07253 22.0451C2.07253 21.053 2.87681 20.2487 3.86894 20.2487C4.86107 20.2487 5.66534 21.053 5.66534 22.0451Z" fill="white" fill-opacity="0.5"/>
<path d="M10.5156 26.8954C10.5156 27.8876 9.71137 28.6918 8.71924 28.6918C7.72711 28.6918 6.92283 27.8876 6.92283 26.8954C6.92283 25.9033 7.72711 25.099 8.71924 25.099C9.71137 25.099 10.5156 25.9033 10.5156 26.8954Z" fill="white" fill-opacity="0.5"/>
<path d="M17.1624 28.5122C17.1624 29.5043 16.3581 30.3086 15.3659 30.3086C14.3738 30.3086 13.5695 29.5043 13.5695 28.5122C13.5695 27.5201 14.3738 26.7158 15.3659 26.7158C16.3581 26.7158 17.1624 27.5201 17.1624 28.5122Z" fill="white" fill-opacity="0.5"/>
<path d="M23.8091 26.7158C23.8091 27.7079 23.0048 28.5122 22.0127 28.5122C21.0205 28.5122 20.2162 27.7079 20.2162 26.7158C20.2162 25.7237 21.0205 24.9194 22.0127 24.9194C23.0048 24.9194 23.8091 25.7237 23.8091 26.7158Z" fill="white" fill-opacity="0.5"/>
<path d="M28.6594 22.0451C28.6594 23.0373 27.8551 23.8415 26.863 23.8415C25.8708 23.8415 25.0665 23.0373 25.0665 22.0451C25.0665 21.053 25.8708 20.2487 26.863 20.2487C27.8551 20.2487 28.6594 21.053 28.6594 22.0451Z" fill="white" fill-opacity="0.5"/>
<path d="M30.2761 15.3984C30.2761 16.3905 29.4718 17.1948 28.4797 17.1948C27.4876 17.1948 26.6833 16.3905 26.6833 15.3984C26.6833 14.4063 27.4876 13.602 28.4797 13.602C29.4718 13.602 30.2761 14.4063 30.2761 15.3984Z" fill="white" fill-opacity="0.5"/>
<path d="M28.4797 8.75171C28.4797 9.74384 27.6754 10.5481 26.6833 10.5481C25.6912 10.5481 24.8869 9.74384 24.8869 8.75171C24.8869 7.75958 25.6912 6.9553 26.6833 6.9553C27.6754 6.9553 28.4797 7.75958 28.4797 8.75171Z" fill="white" fill-opacity="0.5"/>
<path d="M23.8091 3.90141C23.8091 4.89354 23.0048 5.69782 22.0127 5.69782C21.0205 5.69782 20.2162 4.89354 20.2162 3.90141C20.2162 2.90928 21.0205 2.105 22.0127 2.105C23.0048 2.105 23.8091 2.90928 23.8091 3.90141Z" fill="white" fill-opacity="0.5"/>
<path d="M17.1624 2.105C17.1624 3.09713 16.3581 3.90141 15.3659 3.90141C14.3738 3.90141 13.5695 3.09713 13.5695 2.105C13.5695 1.11287 14.3738 0.308594 15.3659 0.308594C16.3581 0.308594 17.1624 1.11287 17.1624 2.105Z" fill="white" fill-opacity="0.5"/>
<path d="M3.86894 15.3984C3.86894 16.3905 3.06466 17.1948 2.07253 17.1948C1.0804 17.1948 0.276123 16.3905 0.276123 15.3984C0.276123 14.4063 1.0804 13.602 2.07253 13.602C3.06466 13.602 3.86894 14.4063 3.86894 15.3984Z" fill="white" fill-opacity="0.5"/>
</svg>
