<svg width="31" height="30" viewBox="0 0 31 30" fill="none" xmlns="http://www.w3.org/2000/svg">
<path d="M15.083 22.9688L13.3252 26.4844L15.083 30C17.0246 30 18.5986 28.426 18.5986 26.4844C18.5986 24.5428 17.0246 22.9688 15.083 22.9688Z" fill="#31AD67"/>
<path d="M11.5674 26.4844C11.5674 28.426 13.1414 30 15.083 30V22.9688C13.1414 22.9688 11.5674 24.5428 11.5674 26.4844Z" fill="#A8CF89"/>
<path d="M15.083 0L11.5674 3.51562L15.083 7.03125C16.2462 7.03125 17.1924 7.97748 17.1924 9.14062C17.1924 9.76043 16.9203 10.3471 16.4459 10.7503L15.083 11.9089L12.7393 16.5599L15.083 21.2109H18.5986V18.1489L20.9996 16.1077C23.0485 14.3667 24.2236 11.8273 24.2236 9.14062C24.2236 4.10045 20.1232 0 15.083 0V0Z" fill="#31AD67"/>
<path d="M11.5674 14.8979V21.2109H15.083V11.9089L11.5674 14.8979Z" fill="#A8CF89"/>
<path d="M5.94238 9.14062V10.0195H12.9736V9.14062C12.9736 7.97748 13.9199 7.03125 15.083 7.03125V0C10.0428 0 5.94238 4.10045 5.94238 9.14062Z" fill="#A8CF89"/>
</svg>
