<svg width="53" height="53" viewBox="0 0 53 53" fill="none" xmlns="http://www.w3.org/2000/svg">
<path d="M8.63759 27.9834L9.03494 27.5125H44.8801C45.9554 27.5125 46.8625 28.3128 46.9963 29.3797L48.4686 41.1095L47.6354 43.9354L49.1111 46.2282L49.5596 49.8009L49.0943 49.8008C49.2541 51.0741 48.2614 52.1993 46.9781 52.1993L6.35043 52.5997C5.06709 52.5997 4.07436 51.4745 4.23421 50.2012L6.52138 29.8507C6.65532 28.7837 7.56242 27.9834 8.63759 27.9834Z" fill="#BBE2C6"/>
<path d="M47.5437 52.9999H5.45607C4.17209 52.9999 3.17925 51.8748 3.33921 50.6015L3.88821 46.2281L5.10554 44.0908L4.53073 41.1094L6.00315 29.3798C6.13752 28.3133 7.04398 27.5125 8.12 27.5125H9.035L6.53849 47.4024C6.37853 48.6757 7.37137 49.8008 8.65535 49.8008H49.5603L49.6605 50.6016C49.8205 51.8748 48.8277 52.9999 47.5437 52.9999Z" fill="#A8CF89"/>
<path d="M49.1113 46.2282H42.1764C41.882 46.2282 41.6431 46.4671 41.6431 46.7614V49.8008L41.4276 50.9114L41.6431 53H36.311L36.5947 51.4004L36.311 49.8008V46.7614C36.311 46.4671 36.0721 46.2282 35.7778 46.2282H3.88843L5.13273 43.7913L4.53042 41.1094H10.0214C10.3126 41.1094 10.9825 40.9967 10.9868 40.7055L10.7509 27.5125H16.0852L15.8879 40.5676C15.8836 40.8652 16.1235 41.1094 16.4211 41.1094H48.4693L48.8439 44.0954L48.1983 45.1346L49.1113 46.2282Z" fill="#F8F7F7"/>
<path d="M10.7509 27.5125H12.8838L12.6875 40.5847C12.6833 40.8759 12.4455 41.1094 12.1543 41.1094H10.0215C10.3126 41.1094 10.5504 40.8759 10.5547 40.5847L10.7509 27.5125Z" fill="#EBEBEB"/>
<path d="M49.1113 46.2281H42.1763C41.8819 46.2281 41.6431 46.467 41.6431 46.7613V44.6284C41.6431 44.3341 41.8819 44.0952 42.1763 44.0952H48.8436L49.1113 46.2281Z" fill="#EBEBEB"/>
<path d="M35.7778 44.0954H7.43717C7.18048 44.0954 6.98192 43.8703 7.01391 43.6156L7.32872 41.1094H4.53042L3.88843 46.2282H6.68566H35.7778C36.0721 46.2282 36.311 46.4671 36.311 46.7614V44.6286C36.311 44.334 36.0723 44.0954 35.7778 44.0954Z" fill="#EBEBEB"/>
<path d="M36.311 49.8008H41.6432V53.0001H36.311V49.8008Z" fill="#EBEBEB"/>
<path d="M11.4526 16.7109C11.4526 10.6037 13.5493 5.2626 18.184 2.34699C20.5537 0.856341 23.3774 0 26.4999 0C35.7297 0 42.3483 7.48226 42.3483 16.7121C42.3483 27.1679 33.2915 36.9094 28.8645 40.9913C27.8456 41.9307 26.9227 42.3137 26.5611 42.5933C26.4367 42.6896 26.2772 42.5671 26.1527 42.4708C24.2205 40.9763 11.4526 29.5731 11.4526 16.7109Z" fill="#57B1D8"/>
<path d="M28.8651 40.9921C27.8456 41.9306 27.0724 42.5704 26.7109 42.8498C26.5861 42.9469 26.4134 42.9469 26.2886 42.8498C24.3573 41.3558 10.6516 29.5739 10.6516 16.7117C10.6516 10.6043 13.5491 5.26254 18.1838 2.34692C15.0026 5.40757 13.1044 9.84924 13.1044 14.7921C13.1044 27.6543 26.8101 39.4362 28.7414 40.9303C28.7787 40.9601 28.8214 40.9804 28.8651 40.9921Z" fill="#57B1D8"/>
<path d="M38.2304 16.7109C38.2304 19.4067 37.3211 21.8901 35.7924 23.8712C33.6473 26.6511 30.2826 27.9628 26.4998 27.9628C20.0211 27.9628 15.4158 22.9502 15.4158 16.4715C15.4158 12.6881 16.5602 9.56255 19.3406 7.41744C21.3215 5.88925 23.8045 4.98022 26.4998 4.98022C32.9785 4.98022 38.2304 10.2323 38.2304 16.7109Z" fill="#F8F7F7"/>
<path d="M35.7917 23.8706C33.6472 26.6507 30.2826 28.4413 26.5 28.4413C20.0214 28.4413 14.7693 23.1891 14.7693 16.7106C14.7693 12.9269 16.5609 9.56231 19.3411 7.41772C17.8118 9.39808 16.9021 11.8818 16.9021 14.5777C16.9021 21.0563 22.1543 26.3084 28.6328 26.3084C31.3288 26.3084 33.8114 25.3998 35.7917 23.8706Z" fill="#EBEBEB"/>
</svg>
