<svg width="31" height="30" viewBox="0 0 31 30" fill="none" xmlns="http://www.w3.org/2000/svg">
<g clip-path="url(#clip0_446_704)">
<path d="M30.083 15C30.083 14.8178 30.0797 14.6362 30.0733 14.4556C29.7868 6.42352 23.1851 0 15.083 0C6.98096 0 0.379258 6.42352 0.0927344 14.4556C0.0862891 14.6362 0.0830078 14.8178 0.0830078 15C0.0830078 23.2843 7.7882 29.4557 15.083 29.4557C22.51 29.4557 30.083 23.2843 30.083 15Z" fill="#A8CF89"/>
<path d="M15.083 28.9112C6.98107 28.9112 0.380547 22.4875 0.0939062 14.4556C0.0874023 14.6364 0.0830078 14.8176 0.0830078 15C0.0830078 23.2842 6.79873 30 15.083 30C23.3673 30 30.083 23.2842 30.083 15C30.083 14.8176 30.0786 14.6364 30.0722 14.4556C29.7855 22.4876 23.1849 28.9112 15.083 28.9112Z" fill="#31AD67"/>
<path d="M27.588 14.4556C27.303 7.79539 21.8134 2.48328 15.083 2.48328C8.35264 2.48328 2.86299 7.79539 2.57799 14.4556C2.57026 14.6361 2.57794 26.7205 15.083 26.7205C27.5881 26.7205 27.5958 14.6361 27.588 14.4556Z" fill="#A8CF89"/>
<path d="M15.0831 26.4279C8.35278 26.4279 2.864 21.1157 2.57889 14.4556C2.57115 14.6362 2.56641 14.8174 2.56641 14.9999C2.56641 21.9127 8.17031 27.5166 15.0831 27.5166C21.9959 27.5166 27.5998 21.9127 27.5998 15C27.5998 14.8175 27.595 14.6362 27.5873 14.4556C27.3022 21.1157 21.8134 26.4279 15.0831 26.4279Z" fill="#A8CF89"/>
<path d="M19.6297 10.6084C19.273 10.2565 18.6985 10.2605 18.3467 10.6172L16.2178 12.7756L16.4317 13.8032L17.4261 14.1344L19.6386 11.8914C19.9904 11.5347 19.9865 10.9602 19.6297 10.6084Z" fill="white"/>
<path d="M13.7986 12.8582L8.97031 8.55551C8.59619 8.22211 8.02273 8.25516 7.68939 8.62928C7.35605 9.00334 7.38904 9.57685 7.76316 9.91019L12.6865 14.2976L13.7124 13.9554L13.7986 12.8582Z" fill="white"/>
<path d="M21.507 20.8498C21.404 20.8498 21.3005 20.815 21.2155 20.7436L15.469 15.9167C15.2772 15.7556 15.2523 15.4694 15.4134 15.2776C15.5745 15.0858 15.8606 15.0609 16.0525 15.222L21.799 20.0489C21.9908 20.2101 22.0157 20.4962 21.8546 20.688C21.7649 20.7948 21.6364 20.8498 21.507 20.8498Z" fill="white"/>
<path d="M12.6865 14.2977L13.5338 15.0527L14.6219 14.683L14.5629 13.5393L13.7986 12.8583C13.2669 13.1778 12.8644 13.6897 12.6865 14.2977Z" fill="white"/>
<path d="M16.2174 12.7756L15.4971 13.5059V14.9395H16.6318L17.4259 14.1345C17.2077 13.5441 16.7725 13.0593 16.2174 12.7756Z" fill="white"/>
<path d="M16.535 14.4556C16.3146 13.8679 15.7476 13.4496 15.0829 13.4496C14.4182 13.4496 13.8512 13.8679 13.6307 14.4556C13.5672 14.625 13.6265 16.0061 15.0829 16.0061C16.5392 16.0061 16.5985 14.625 16.535 14.4556Z" fill="#A8CF89"/>
<path d="M15.0832 15.4617C14.4185 15.4617 13.8517 15.0434 13.6313 14.4557C13.5677 14.6251 13.5327 14.8084 13.5327 15C13.5327 15.8563 14.2269 16.5504 15.0831 16.5504C15.9394 16.5504 16.6335 15.8563 16.6335 15C16.6335 14.8084 16.5985 14.6251 16.535 14.4557C16.3146 15.0433 15.7479 15.4617 15.0832 15.4617Z" fill="#31AD67"/>
<path d="M15.5374 5.48283V4.07499C15.5374 3.82398 15.3339 3.62048 15.0829 3.62048C14.8319 3.62048 14.6284 3.82398 14.6284 4.07499V5.48283C14.6284 5.73384 14.8319 5.93734 15.0829 5.93734C15.334 5.93734 15.5374 5.73384 15.5374 5.48283Z" fill="white"/>
<path d="M14.6284 24.5173V25.9251C14.6284 26.1761 14.8319 26.3796 15.0829 26.3796C15.334 26.3796 15.5374 26.1761 15.5374 25.9251V24.5173C15.5374 24.2662 15.3339 24.0627 15.0829 24.0627C14.8319 24.0627 14.6284 24.2662 14.6284 24.5173Z" fill="white"/>
<path d="M26.0083 15.4546C26.2594 15.4546 26.4629 15.2511 26.4629 15C26.4629 14.749 26.2594 14.5455 26.0083 14.5455H24.6005C24.3495 14.5455 24.146 14.749 24.146 15C24.146 15.2511 24.3495 15.4546 24.6005 15.4546H26.0083Z" fill="white"/>
<path d="M4.15812 14.5455C3.90705 14.5455 3.70361 14.749 3.70361 15C3.70361 15.2511 3.90705 15.4546 4.15812 15.4546H5.56596C5.81703 15.4546 6.02047 15.2511 6.02047 15C6.02047 14.749 5.81697 14.5455 5.56596 14.5455H4.15812Z" fill="white"/>
</g>
<defs>
<clipPath id="clip0_446_704">
<rect width="30" height="30" fill="white" transform="translate(0.0830078)"/>
</clipPath>
</defs>
</svg>
