<svg width="25" height="13" viewBox="0 0 25 13" fill="none" xmlns="http://www.w3.org/2000/svg">
<path d="M24.8348 6.09945L19.1531 0.417713C18.949 0.179387 18.5903 0.151604 18.352 0.355751C18.1136 0.559849 18.0859 0.918534 18.29 1.15686C18.3091 1.17908 18.3298 1.19983 18.352 1.21882L23.0621 5.93465H0.568154C0.25439 5.93465 0 6.18904 0 6.50286C0 6.81667 0.25439 7.07101 0.568154 7.07101H23.0621L18.352 11.7811C18.1136 11.9852 18.0859 12.3439 18.29 12.5822C18.4942 12.8206 18.8528 12.8483 19.0911 12.6442C19.1133 12.6252 19.1341 12.6045 19.1531 12.5822L24.8348 6.90051C25.0551 6.67898 25.0551 6.32107 24.8348 6.09945Z" fill="black"/>
</svg>
