<svg width="53" height="53" viewBox="0 0 53 53" fill="none" xmlns="http://www.w3.org/2000/svg">
<path d="M7.49226 2.67597L4.55997 6.41102C-0.6067 12.9924 -0.0424367 22.3961 5.874 28.3126L24.6874 47.1261C30.6039 53.0425 40.0076 53.6068 46.5891 48.4401L50.3241 45.508C52.3473 43.9198 52.5272 40.9203 50.7085 39.1016L42.5109 30.904C40.8359 29.229 38.1203 29.229 36.4452 30.904L33.7782 33.5709C32.5188 34.8303 30.4772 34.8303 29.2178 33.5709L19.4227 23.7759C18.1634 22.5165 18.1634 20.4749 19.4227 19.2155L22.0897 16.5485C23.7647 14.8735 23.7647 12.1579 22.0897 10.4828L13.8987 2.29183C12.0799 0.472954 9.0805 0.652864 7.49226 2.67597Z" fill="#57B1D8"/>
<path d="M42.5108 30.9037C40.8358 29.2287 38.1202 29.2287 36.4451 30.9037L33.7781 33.5707C33.7469 33.6018 33.715 33.6316 33.6829 33.6613L47.6381 47.6165L50.324 45.5079C52.3472 43.9197 52.5272 40.9202 50.7084 39.1014L42.5108 30.9037Z" fill="#57B1D8"/>
<path d="M13.8985 2.29141C12.0799 0.472741 9.0804 0.652651 7.49216 2.67576L5.38354 5.36178L19.3321 19.3103C19.3617 19.2782 19.3915 19.2462 19.4226 19.2151L22.0896 16.5481C23.7646 14.8731 23.7646 12.1575 22.0896 10.4824L13.8985 2.29141Z" fill="#57B1D8"/>
</svg>
