<svg width="31" height="30" viewBox="0 0 31 30" fill="none" xmlns="http://www.w3.org/2000/svg">
<g clip-path="url(#clip0_446_762)">
<path d="M3.65782 15.8397L3.88274 15.5731H24.1724C24.7811 15.5731 25.2945 16.0262 25.3703 16.63L26.2037 23.2696L25.7321 24.8691L26.5674 26.167L26.8212 28.1892L26.5578 28.1891C26.6483 28.9099 26.0864 29.5468 25.36 29.5468L2.3632 29.7735C1.63678 29.7735 1.07486 29.1366 1.16534 28.4158L2.45996 16.8967C2.53578 16.2927 3.04924 15.8397 3.65782 15.8397Z" fill="#A8CF89"/>
<path d="M25.6799 30H1.85674C1.12996 30 0.567973 29.3632 0.658518 28.6424L0.969271 26.1669L1.65832 24.9571L1.33296 23.2695L2.16641 16.6301C2.24246 16.0265 2.75556 15.5731 3.36463 15.5731H3.88255L2.46943 26.8316C2.37889 27.5523 2.94087 28.1891 3.66765 28.1891H26.8214L26.8781 28.6425C26.9687 29.3632 26.4067 30 25.6799 30Z" fill="#31AD67"/>
<path d="M26.5671 26.167H22.6417C22.475 26.167 22.3398 26.3022 22.3398 26.4688V28.1891L22.2178 28.8178L22.3398 30.0001H19.3216L19.4822 29.0946L19.3216 28.1891V26.4688C19.3216 26.3022 19.1864 26.167 19.0198 26.167H0.969238L1.67356 24.7876L1.33263 23.2695H4.44076C4.60555 23.2695 4.98476 23.2057 4.98717 23.0409L4.85365 15.5731H7.87304L7.76137 22.9628C7.75896 23.1313 7.89478 23.2695 8.06319 23.2695H26.2037L26.4157 24.9597L26.0503 25.5479L26.5671 26.167Z" fill="#F8F7F7"/>
<path d="M4.85381 15.5731H6.06108L5.95001 22.9725C5.9476 23.1373 5.81299 23.2695 5.64819 23.2695H4.44092C4.60571 23.2695 4.74032 23.1373 4.74274 22.9725L4.85381 15.5731Z" fill="#EBEBEB"/>
<path d="M26.5671 26.167H22.6417C22.4751 26.167 22.3398 26.3022 22.3398 26.4688V25.2615C22.3398 25.0949 22.4751 24.9597 22.6417 24.9597H26.4156L26.5671 26.167Z" fill="#EBEBEB"/>
<path d="M19.0198 24.9597H2.97796C2.83267 24.9597 2.72027 24.8323 2.73838 24.6881L2.91657 23.2695H1.33263L0.969238 26.167H2.55258H19.0198C19.1864 26.167 19.3216 26.3022 19.3216 26.4688V25.2615C19.3216 25.0948 19.1865 24.9597 19.0198 24.9597Z" fill="#EBEBEB"/>
<path d="M19.3218 28.1891H22.34V30H19.3218V28.1891Z" fill="#EBEBEB"/>
<path d="M5.25098 9.459C5.25098 6.00209 6.43779 2.97883 9.0612 1.32849C10.4025 0.484721 12.0009 0 13.7683 0C18.9927 0 22.7391 4.23524 22.7391 9.45967C22.7391 15.378 17.6126 20.8921 15.1068 23.2026C14.53 23.7344 14.0076 23.9511 13.803 24.1094C13.7325 24.1639 13.6422 24.0946 13.5718 24.0401C12.4781 23.1941 5.25098 16.7395 5.25098 9.459Z" fill="#31AD67"/>
<path d="M15.1074 23.203C14.5303 23.7342 14.0927 24.0964 13.888 24.2545C13.8174 24.3095 13.7196 24.3095 13.649 24.2545C12.5558 23.4088 4.79785 16.7399 4.79785 9.45937C4.79785 6.00234 6.43793 2.97872 9.06134 1.32837C7.26069 3.06081 6.18622 5.57496 6.18622 8.37282C6.18622 15.6533 13.9442 22.3223 15.0374 23.168C15.0585 23.1849 15.0826 23.1964 15.1074 23.203Z" fill="#31AD67"/>
<path d="M20.4081 9.45898C20.4081 10.9849 19.8934 12.3906 19.0281 13.512C17.8139 15.0855 15.9093 15.828 13.7681 15.828C10.1009 15.828 7.49414 12.9906 7.49414 9.32347C7.49414 7.18194 8.1419 5.41274 9.71576 4.19852C10.837 3.33351 12.2425 2.81897 13.7681 2.81897C17.4353 2.81897 20.4081 5.79182 20.4081 9.45898Z" fill="#F8F7F7"/>
<path d="M19.0279 13.5117C17.814 15.0853 15.9095 16.0989 13.7684 16.0989C10.1013 16.0989 7.12842 13.1259 7.12842 9.45883C7.12842 7.31713 8.14253 5.41265 9.71621 4.19873C8.8506 5.31969 8.33569 6.72556 8.33569 8.25156C8.33569 11.9187 11.3086 14.8916 14.9757 14.8916C16.5017 14.8916 17.907 14.3773 19.0279 13.5117Z" fill="#EBEBEB"/>
</g>
<defs>
<clipPath id="clip0_446_762">
<rect width="30" height="30" fill="white" transform="translate(0.0830078)"/>
</clipPath>
</defs>
</svg>
